<svg xmlns="http://www.w3.org/2000/svg" viewBox="0 0 200 200" role="img" aria-label="Tour Guide Ecuador tortoise mark">
  <g fill="currentColor">
    <polygon points="88,50 92,40 100,34 108,40 112,50 100,58"/>
    <polygon points="100,62 130,84 130,126 100,148 70,126 70,84"/>
    <polygon points="36,74 50,64 72,78 68,84"/>
    <polygon points="164,74 150,64 128,78 132,84"/>
    <polygon points="36,136 50,146 72,132 68,126"/>
    <polygon points="164,136 150,146 128,132 132,126"/>
    <polygon points="94,150 106,150 100,162"/>
  </g>
</svg>
